PathFileType	4	(X/Y/Z)	/Users/visionmauri/Downloads/Videos/OAW11-top_Sports2D/OAW11-top_Sports2D_px_person00.trc
DataRate	CameraRate	NumFrames	NumMarkers	Units	OrigDataRate	OrigDataStartFrame	OrigNumFrames
30.0	30.0	6	22	m	30.0	1353	2166
Frame#	Time	Hip			RHip			RKnee			RAnkle			RBigToe			RSmallToe			RHeel			LHip			LKnee			LAnkle			LBigToe			LSmallToe			LHeel			Neck			Head			Nose			RShoulder			RElbow			RWrist			LShoulder			LElbow			LWrist			
		X1	Y1	Z1	X2	Y2	Z2	X3	Y3	Z3	X4	Y4	Z4	X5	Y5	Z5	X6	Y6	Z6	X7	Y7	Z7	X8	Y8	Z8	X9	Y9	Z9	X10	Y10	Z10	X11	Y11	Z11	X12	Y12	Z12	X13	Y13	Z13	X14	Y14	Z14	X15	Y15	Z15	X16	Y16	Z16	X17	Y17	Z17	X18	Y18	Z18	X19	Y19	Z19	X20	Y20	Z20	X21	Y21	Z21	X22	Y22	Z22
1353	45.120831408775985	518.5854692579566	703.7227703423503	0.0	493.2435380247996	703.308230543966	0.0	492.9102976454313	783.6781782192702	0.0	493.8340498340908	861.6220776000933	0.0	484.93972700846217	892.2120127091107	0.0	474.4420948655787	889.4532107987332	0.0	499.2892772253644	874.9301818072888	0.0	541.5734256898265	707.5023960308166	0.0	535.9008686279384	786.4055490959022	0.0	529.952146170898	855.9982747039614	0.0	531.041813589741	884.2341553609139	0.0	543.4216229243684	883.1913782010927	0.0	525.367876338883	869.1908580489044	0.0	524.4804563633447	596.8836720977812	0.0	524.3847236850052	563.88621441581	0.0	524.6086225796519	602.6174451875963	0.0	486.131034365518	600.7345207887091	0.0	467.5497225167512	659.8449563340431	0.0	451.5127156383795	709.063394739235	0.0	563.0239734344665	600.848311672165	0.0	583.4498820734113	661.4630523954462	0.0	588.2474988639207	714.1896205463855	0.0
1354	45.15418013856813	518.1850629337378	705.7913211418474	0.0	492.8952097638562	707.0866628300591	0.0	492.6953719749647	786.3894326172913	0.0	491.7249389142613	865.5704763258576	0.0	483.28583194228906	894.0005987540368	0.0	472.92091811270956	892.029771967653	0.0	496.50974183576994	880.6963016597138	0.0	541.323453964175	711.1451902573009	0.0	535.1478533585207	788.3903802092352	0.0	530.02733146344	856.923849699666	0.0	531.0662416956346	884.917866416768	0.0	543.1015304829746	883.6990580492927	0.0	525.4312442397053	873.0635327402168	0.0	524.3833876642194	595.6628733273463	0.0	523.5679966201914	566.7109495556475	0.0	524.6235730645958	602.1485066005697	0.0	485.87848400638825	601.972936055524	0.0	466.9415280545864	661.930117222514	0.0	450.40482040727045	710.0498881558054	0.0	562.2304915295158	601.5584342709739	0.0	583.1201281702204	662.3875410517038	0.0	587.9757313411114	713.2382693049119	0.0
1355	45.187528868360275	517.2712578582324	706.4913775197762	0.0	492.142973485363	708.9688756422266	0.0	491.74345783456266	787.306422463385	0.0	489.5301854229315	867.6604865799463	0.0	482.76272959233756	894.7560690477349	0.0	472.03866797948126	893.4336725139129	0.0	493.7972778189611	884.9271956442313	0.0	540.9639227718742	712.600459643459	0.0	534.4113124937211	788.8079456021018	0.0	529.9957457297284	857.5553555502327	0.0	531.164610049712	885.9470183645655	0.0	542.8897208774888	884.4043846386577	0.0	525.7344737145759	877.0825223796147	0.0	524.0867096125081	597.6853228806826	0.0	522.4099800695194	566.7215037336874	0.0	524.7317960829894	602.1171173067596	0.0	485.76603776596494	602.8914933686368	0.0	466.3174162688326	663.2084796497528	0.0	448.7784533724338	712.03101436218	0.0	561.0311885834054	602.3028261242708	0.0	582.5198472164831	663.2233093762699	0.0	587.4461395186079	713.5346920914226	0.0
1356	45.22087759815243	516.1846958054676	706.7919611190343	0.0	491.05282916329924	708.7889482354678	0.0	490.4956367037765	787.4537700123534	0.0	487.7673462081399	869.7764354160649	0.0	482.8046491091053	896.1027823632134	0.0	471.5558409155189	894.8410362200615	0.0	491.82471067614506	887.6623543164449	0.0	540.3280041291985	712.318859570501	0.0	533.9051806773975	788.7444600124804	0.0	529.9901788402061	857.3920376701919	0.0	531.0453561313369	886.8161953804296	0.0	542.7322886650985	884.8075226869942	0.0	526.2496265088583	877.8727889874466	0.0	523.3257283829641	601.4021187413887	0.0	521.0359745680146	564.5584082372828	0.0	524.0372529101741	602.2619106401645	0.0	485.65510753622016	603.9720845224787	0.0	465.5009746525787	663.9023723636288	0.0	446.94829726228215	714.572685575682	0.0	559.7350174638036	603.5763839567286	0.0	582.0526791325838	664.1183105080107	0.0	586.8016103379521	715.4217735996879	0.0
1357	45.25422632794457	515.323457100041	708.1585538809875	0.0	489.9945379040555	708.3600320462323	0.0	489.48607601984304	788.8345211810777	0.0	486.90028800343254	873.5560542754628	0.0	482.67525959050204	899.4372241167866	0.0	471.1515273570633	897.7128478751281	0.0	490.8715826828262	889.9420356250732	0.0	539.2950926784605	712.1767097550012	0.0	533.6199193120802	789.8517787220259	0.0	530.0411106996512	856.4134543143583	0.0	530.6220082191085	887.2063399170465	0.0	542.5889426950301	884.607478193424	0.0	526.7739361527068	873.6939471133429	0.0	521.9792250312235	603.599417640866	0.0	519.6170710538894	563.0665960870509	0.0	522.082693077097	602.4935022502777	0.0	485.08301261381735	605.8681878745574	0.0	464.2276396230365	665.1231488205779	0.0	445.16215501196626	716.6218275012096	0.0	558.5188209709441	605.5007498694918	0.0	581.8160004047435	665.3821512378714	0.0	586.0914698542247	717.916611095318	0.0
1358	45.287575057736724	514.4219183617893	709.9125351958315	0.0	488.9247196052391	708.989454382219	0.0	488.64155727954727	791.7404132271238	0.0	486.6100248690869	878.3094551204122	0.0	482.1394567453663	904.4914340979409	0.0	470.50536831237764	902.1460366015564	0.0	490.59382347249556	892.3209172656088	0.0	537.9430054298261	713.1274292775087	0.0	533.0183457322054	792.2083490589206	0.0	530.0626263122946	855.0692905073469	0.0	530.071331471304	887.2453190890735	0.0	542.5467106008135	883.7765227214678	0.0	526.9473671492703	867.4927071344382	0.0	520.079951712707	604.5485445993318	0.0	517.8465305161219	563.7564759282758	0.0	519.2670860569086	603.1753463890578	0.0	483.3398175590718	608.2431987788494	0.0	462.40052919408316	667.2857665343878	0.0	443.38724971169495	718.1722962718179	0.0	557.1400340143592	607.562527509337	0.0	581.3701973046715	667.058903848822	0.0	585.1975502542955	720.1792040630816	0.0
